<svg xmlns="http://www.w3.org/2000/svg" xmlns:xlink="http://www.w3.org/1999/xlink" viewBox="0,0,256,256" width="48px" height="48px" fill-rule="nonzero"><g fill="#46656f" fill-rule="nonzero" stroke="none" stroke-width="1" stroke-linecap="butt" stroke-linejoin="miter" stroke-miterlimit="10" stroke-dasharray="" stroke-dashoffset="0" font-family="none" font-weight="none" font-size="none" text-anchor="none" style="mix-blend-mode: normal"><g transform="scale(5.33333,5.33333)"><path d="M7.99805,10.99805c-4.41305,0 -7.99359,3.58071 -8,7.98828c-0.00005,0.0041 -0.00195,0.00761 -0.00195,0.01172c0,4.093 3.08088,7.46627 7.04688,7.94727c-0.032,-0.32 -0.04883,-0.62727 -0.04883,-0.94727c0,-0.36 0.0215,-0.71813 0.0625,-1.07812c-2.86248,-0.43961 -5.0567,-2.93055 -5.06055,-5.91406c0.00002,-0.00277 0.00195,-0.00504 0.00195,-0.00781c0,-3.307 2.688,-6 6,-6c3.31,0 6.00195,2.693 6.00195,6c0,1.68 -0.69545,3.20192 -1.81445,4.29492c-0.228,0.226 -0.47438,0.42628 -0.73437,0.61328c-0.294,0.64 -0.45703,1.3448 -0.45703,2.0918c0,0.133 0.00562,0.28006 0.01563,0.41406c0.966,-0.387 1.83531,-0.97269 2.57031,-1.67969c1.491,-1.453 2.41992,-3.49437 2.41992,-5.73437c0,-4.413 -3.58595,-8 -8.00195,-8zM23.99609,10.99805c-3.728,0 -6.862,2.547 -7.75,6c0.688,0.027 1.35705,0.12125 1.99805,0.28125c0.739,-2.467 3.03595,-4.28125 5.75195,-4.28125c3.31,0 6.00195,2.693 6.00195,6c0,2.027 -1.00792,3.8152 -2.54492,4.9082c-0.295,0.64 -0.45898,1.3448 -0.45898,2.0918c0,0.133 0.00658,0.28106 0.01758,0.41406c2.924,-1.186 4.98633,-4.06706 4.98633,-7.41406c0,-4.413 -3.58595,-8 -8.00195,-8zM39.99609,10.99805c-3.728,0 -6.86395,2.547 -7.75195,6c0.688,0.027 1.359,0.12125 2,0.28125c0.739,-2.467 3.03595,-4.28125 5.75195,-4.28125c3.31,0 6,2.693 6,6c0,3.307 -2.689,6 -6,6c-2.309,0 -4.31631,-1.30656 -5.32031,-3.22656c-0.709,-0.44 -1.53873,-0.72044 -2.42773,-0.77344c0.891,3.453 4.02305,6 7.74805,6c4.416,0 8,-3.587 8,-8c0,-4.413 -3.584,-8 -8,-8zM16.94922,18.05078c0.032,0.32 0.04883,0.62727 0.04883,0.94727c0,0.36 -0.02345,0.72008 -0.06445,1.08008c1.905,0.294 3.51586,1.49348 4.38086,3.14648c0.57,0.36 1.21897,0.61375 1.91797,0.71875c0.065,-0.28 0.14142,-0.5455 0.23242,-0.8125c-1.048,-2.72 -3.53162,-4.72008 -6.51562,-5.08008zM32.94727,18.05273c0.032,0.32 0.04883,0.62531 0.04883,0.94531c0,0.36 -0.0215,0.72008 -0.0625,1.08008c1.544,0.24 2.89545,1.06691 3.81445,2.25391c0.214,0.28 0.40341,0.57258 0.56641,0.89258c0.709,0.44 1.53674,0.71944 2.42773,0.77344c-0.275,-1.067 -0.76311,-2.03891 -1.41211,-2.87891c-1.28,-1.667 -3.19781,-2.79941 -5.38281,-3.06641zM12.98047,18.58594c-2.924,1.186 -4.98633,4.06511 -4.98633,7.41211c0,4.413 3.584,8 8,8c3.403,0 6.31275,-2.13214 7.46875,-5.11914c-0.1,-0.307 -0.18395,-0.59925 -0.25195,-0.90625c-0.501,-0.053 -0.98984,-0.13391 -1.46484,-0.25391c-0.739,2.467 -3.03895,4.2793 -5.75195,4.2793c-3.312,0 -6,-2.693 -6,-6c0,-2.027 1.00306,-3.81325 2.53906,-4.90625c0.296,-0.626 0.46289,-1.34675 0.46289,-2.09375c0,-0.133 -0.00462,-0.27911 -0.01562,-0.41211zM28.98047,18.58594c-0.868,0.36 -1.6617,0.85347 -2.3457,1.48047c-1.62,1.453 -2.64062,3.57164 -2.64062,5.93164c0,4.413 3.58495,8 8.00195,8c3.726,0 6.862,-2.547 7.75,-6c-0.688,-0.027 -1.359,-0.1193 -2,-0.2793c-0.739,2.467 -3.037,4.2793 -5.75,4.2793c-3.312,0 -6.00195,-2.693 -6.00195,-6c0,-1.76 0.76347,-3.35817 1.98047,-4.45117c0.0004,-0.00037 -0.0004,-0.00158 0,-0.00195c0.00105,-0.00094 0.00285,-0.00101 0.00391,-0.00195c0.17707,-0.15889 0.36276,-0.30504 0.55859,-0.45117c0.295,-0.64 0.45898,-1.34675 0.45898,-2.09375c0,-0.133 -0.00463,-0.27911 -0.01562,-0.41211zM16.24805,20.99805c0.456,1.773 1.50011,3.30605 2.91211,4.37305c1.106,0.84 2.43681,1.40022 3.88281,1.57422c-0.032,-0.307 -0.04883,-0.62727 -0.04883,-0.94727c0,-0.36 0.0215,-0.71941 0.0625,-1.06641c-0.999,-0.16 -1.9165,-0.55948 -2.6875,-1.14648c-0.702,-0.533 -1.28231,-1.22667 -1.69531,-2.01367c-0.706,-0.44 -1.53678,-0.72044 -2.42578,-0.77344zM23.99609,46.99805c-8.832,0 -16,0.22714 -16,0.49414c0,0.28 7.168,0.50586 16,0.50586c8.832,0 16,-0.22586 16,-0.50586c0,-0.266 -7.168,-0.49414 -16,-0.49414z"></path></g></g></svg>